<?xml version="1.0" standalone="no"?>
<!DOCTYPE svg PUBLIC "-//W3C//DTD SVG 20010904//EN"
 "http://www.w3.org/TR/2001/REC-SVG-20010904/DTD/svg10.dtd">
<svg version="1.0" xmlns="http://www.w3.org/2000/svg"
 width="260.000000pt" height="260.000000pt" viewBox="0 0 260.000000 260.000000"
 preserveAspectRatio="xMidYMid meet">
<metadata>
Created by potrace 1.11, written by Peter Selinger 2001-2013
</metadata>
<g transform="translate(0.000000,260.000000) scale(0.100000,-0.100000)"
fill="#000000" stroke="none">
<path d="M0 1300 l0 -1300 1300 0 1300 0 0 1300 0 1300 -1300 0 -1300 0 0
-1300z m1148 1033 c6 -21 13 -65 17 -98 4 -33 11 -87 17 -120 5 -33 17 -105
25 -160 8 -55 20 -138 28 -185 7 -47 20 -132 29 -190 9 -58 20 -125 25 -150 6
-25 10 -64 11 -87 0 -31 4 -43 15 -43 11 0 15 11 15 43 0 23 5 69 11 102 24
142 40 237 54 340 8 61 18 116 20 124 3 8 13 64 21 125 23 159 42 277 50 309
l6 27 234 0 234 0 0 -1060 0 -1060 -185 0 -185 0 0 498 c-1 418 -3 493 -14
472 -7 -14 -16 -58 -20 -98 -3 -40 -11 -91 -16 -115 -5 -23 -14 -73 -21 -112
-11 -72 -28 -175 -53 -330 -8 -49 -20 -124 -26 -165 -7 -41 -15 -91 -19 -110
l-7 -35 -97 -3 c-72 -2 -99 1 -102 10 -5 13 -11 50 -40 238 -8 58 -18 113 -21
123 -3 10 -12 61 -20 115 -9 53 -22 135 -30 182 -8 47 -21 128 -28 180 -30
213 -35 162 -35 -353 l-1 -497 -185 2 -185 3 0 1048 c0 576 0 1052 0 1057 0 6
85 10 233 10 l234 0 11 -37z"/>
</g>
</svg>
